<?xml version="1.0" encoding="UTF-8" standalone="no"?>
<svg
   xmlns:dc="http://purl.org/dc/elements/1.1/"
   xmlns:cc="http://creativecommons.org/ns#"
   xmlns:rdf="http://www.w3.org/1999/02/22-rdf-syntax-ns#"
   xmlns:svg="http://www.w3.org/2000/svg"
   xmlns="http://www.w3.org/2000/svg"
   xmlns:sodipodi="http://sodipodi.sourceforge.net/DTD/sodipodi-0.dtd"
   xmlns:inkscape="http://www.inkscape.org/namespaces/inkscape"
   id="a103f326-996f-4fea-8e69-572a052820ff"
   data-name="Layer 1"
   width="825.7666"
   height="640.565"
   viewBox="0 0 825.7666 640.565"
   version="1.1"
   sodipodi:docname="icon-branding.svg"
   inkscape:version="1.0 (4035a4fb49, 2020-05-01)">
  <metadata
     id="metadata95">
    <rdf:RDF>
      <cc:Work
         rdf:about="">
        <dc:format>image/svg+xml</dc:format>
        <dc:type
           rdf:resource="http://purl.org/dc/dcmitype/StillImage" />
        <dc:title>performance_overview</dc:title>
      </cc:Work>
    </rdf:RDF>
  </metadata>
  <defs
     id="defs93" />
  <sodipodi:namedview
     inkscape:document-rotation="0"
     pagecolor="#ffffff"
     bordercolor="#666666"
     borderopacity="1"
     objecttolerance="10"
     gridtolerance="10"
     guidetolerance="10"
     inkscape:pageopacity="0"
     inkscape:pageshadow="2"
     inkscape:window-width="1920"
     inkscape:window-height="1001"
     id="namedview91"
     showgrid="false"
     inkscape:zoom="1.2957311"
     inkscape:cx="412.8833"
     inkscape:cy="341.37741"
     inkscape:window-x="-9"
     inkscape:window-y="-9"
     inkscape:window-maximized="1"
     inkscape:current-layer="a103f326-996f-4fea-8e69-572a052820ff" />
  <title
     id="title2">performance_overview</title>
  <polygon
     points="479.735 627.22 288.489 627.22 294.972 542.943 473.252 542.943 479.735 627.22"
     fill="#e6e6e6"
     id="polygon4" />
  <rect
     x="278.76465"
     y="617.49611"
     width="213.93566"
     height="19.4487"
     fill="#e6e6e6"
     id="rect6" />
  <path
     d="M937.51223,129.7175H206.5654a19.4487,19.4487,0,0,0-19.4487,19.4487V594.86549H956.96093V149.1662A19.4487,19.4487,0,0,0,937.51223,129.7175Z"
     transform="translate(-187.1167 -129.7175)"
     fill="#3f3d56"
     id="path8" />
  <path
     d="M187.1167,594.86549V667.7981a19.44869,19.44869,0,0,0,19.4487,19.44869H937.51223a19.44869,19.44869,0,0,0,19.4487-19.44869V594.86549Z"
     transform="translate(-187.1167 -129.7175)"
     fill="#e6e6e6"
     id="path10" />
  <rect
     x="38.89739"
     y="40.51812"
     width="693.67017"
     height="388.97393"
     fill="#e6e6e6"
     id="rect12" />
  <circle
     cx="385.73248"
     cy="510.52828"
     r="19.4487"
     fill="#3f3d56"
     id="circle14" />
  <circle
     cx="60.52625"
     cy="53.25663"
     r="3.69086"
     fill="#fff"
     id="circle16" />
  <circle
     cx="74.53585"
     cy="53.25663"
     r="3.69086"
     fill="#fff"
     id="circle18" />
  <circle
     cx="88.54544"
     cy="53.25663"
     r="3.69086"
     fill="#fff"
     id="circle20" />
  <path
     d="M983.46079,392.77548s5.94476,77.28191-2.3779,79.65981-38.04648,20.21219-85.60458,15.45638c0,0-46.36915,24.968-39.23543,1.189s39.23543-17.83429,39.23543-17.83429,57.06972-11.88953,59.44762-20.21219-7.13371-42.80229-3.56685-43.99124S983.46079,392.77548,983.46079,392.77548Z"
     transform="translate(-187.1167 -129.7175)"
     fill="#ffb8b8"
     id="path22" />
  <path
     d="M979.46079,393.77548s5.94476,77.28191-2.3779,79.65981-38.04648,20.21219-85.60458,15.45638c0,0-46.36915,24.968-39.23543,1.189s39.23543-17.83429,39.23543-17.83429,57.06972-11.88953,59.44762-20.21219-7.13371-42.80229-3.56685-43.99124S979.46079,393.77548,979.46079,393.77548Z"
     transform="translate(-187.1167 -129.7175)"
     fill="#231f20"
     opacity="0.2"
     id="path24" />
  <path
     d="M912.70176,518.097s4.17769,130.06933,11.31141,146.71466c5.94213,13.865,9.40947,59.07736,10.402,73.79462.199,2.95127.29855,4.67624.29855,4.67624s19.02324,0,20.21219-4.75581,4.75581-57.06971,0-73.71505S961.70176,525.097,961.70176,525.097Z"
     transform="translate(-187.1167 -129.7175)"
     fill="#2f2e41"
     id="path26" />
  <path
     d="M939.46955,737.33774s-11.88952,3.56686-14.26743,8.32267-41.61334,13.07848-29.72381,19.02324,47.5581-4.75581,47.5581-4.75581,19.02324-1.18895,17.83429-8.32267-5.5188-15.92356-5.5188-15.92356Z"
     transform="translate(-187.1167 -129.7175)"
     fill="#2f2e41"
     id="path28" />
  <path
     d="M972.76022,741.13856s-11.88952,3.56685-14.26743,8.32266S916.87945,762.5397,928.769,768.48446s47.5581-4.75581,47.5581-4.75581,19.02324-1.18895,17.83428-8.32266-5.51879-15.92356-5.51879-15.92356Z"
     transform="translate(-187.1167 -129.7175)"
     fill="#2f2e41"
     id="path30" />
  <path
     d="M922.82422,524.7492l16.64533,28.53486,27.77989,99.21045s-2.81189,91.022.755,91.022,22.5901,5.94476,23.779,0c1.00432-5.02161,14.32089-53.12538,7.6832-85.14314a409.42026,409.42026,0,0,1-8.30805-61.42572l-2.942-55.55306s11.88953-21.40115-1.18895-24.968S922.82422,524.7492,922.82422,524.7492Z"
     transform="translate(-187.1167 -129.7175)"
     fill="#2f2e41"
     id="path32" />
  <circle
     cx="751.1639"
     cy="183.39816"
     r="28.53486"
     fill="#ffb8b8"
     id="circle34" />
  <path
     d="M934.71374,332.1389s4.75581,38.04648,3.56686,40.42438,28.53486-26.15695,28.53486-26.15695-10.70057-16.64534-8.32267-24.968Z"
     transform="translate(-187.1167 -129.7175)"
     fill="#ffb8b8"
     id="path36" />
  <path
     d="M1001.29508,370.18538s-33.29067-23.779-34.47962-28.53486l-24.968,21.40114-4.24262-5.05012s-19.53643,19.31755-19.53643,27.64022-1.189,33.29067,2.3779,40.42439-10.70057,97.4941-10.70057,97.4941,11.88952,10.70057,13.07848,11.88952,48.74705-7.13371,48.74705-7.13371,23.779-2.37791,23.779-5.94476-7.13372-57.06972-4.75581-71.33715S1001.29508,370.18538,1001.29508,370.18538Z"
     transform="translate(-187.1167 -129.7175)"
     fill="#575a89"
     id="path38" />
  <path
     d="M926.0919,298.8612c3.9005-1.38824,8.20351-2.10118,12.18054-.95035,5.6287,1.62879,9.52706,6.5627,13.7317,10.64389s10.101,7.69757,15.6374,5.77843a9.168,9.168,0,0,1,1.75135-6.77095,6.22705,6.22705,0,0,0,1.55507-2.58815c.23654-1.52831-1.04861-2.84646-1.434-4.34418-.67535-2.62464,1.176-6.21763-1.10019-7.68865-.60082-.3883-1.36154-.47683-1.94789-.88664-2.30122-1.60839.25422-5.6087-1.26727-7.96828a4.86629,4.86629,0,0,0-1.72891-1.44229c-11.0327-6.43748-24.52485-6.45515-37.29729-6.293-1.77808.02258-4.2535.90568-3.752,2.61171-2.41382-1.73266-5.57461.70029-7.52025,2.946l-3.98228,4.59642a35.41012,35.41012,0,0,0-4.86669,6.58314c-1.21651,2.32636-1.48546,5.90289.9356,6.9171-1.8-.754-3.98348,9.90762,4.31446,8.15345C916.12254,307.13963,920.84835,300.72747,926.0919,298.8612Z"
     transform="translate(-187.1167 -129.7175)"
     fill="#2f2e41"
     id="path40" />
  <rect
     x="56.83538"
     y="65.79811"
     width="655.73993"
     height="326.67429"
     fill="#fff"
     id="rect42" />
  <rect
     x="96.4243"
     y="113.80551"
     width="143.32069"
     height="125.17652"
     fill="#e6e6e6"
     id="rect44" />
  <rect
     x="313.69839"
     y="114.18199"
     width="142.88963"
     height="124.80003"
     fill="#e6e6e6"
     id="rect46" />
  <rect
     x="528.69509"
     y="112.95777"
     width="144.29131"
     height="126.02426"
     fill="#e6e6e6"
     id="rect48" />
  <rect
     x="96.4243"
     y="293.62072"
     width="140.1765"
     height="12.94905"
     fill="#e6e6e6"
     id="rect50" />
  <rect
     style="fill:#ff044a;fill-opacity:1"
     x="96.4243"
     y="316.41837"
     width="70.23225"
     height="12.94905"
     fill="#6c63ff"
     id="rect52" />
  <rect
     x="316.03407"
     y="293.62072"
     width="140.1765"
     height="12.94905"
     fill="#e6e6e6"
     id="rect54" />
  <rect
     style="fill:#ff044a;fill-opacity:1"
     x="316.03407"
     y="316.41837"
     width="70.23225"
     height="12.94905"
     fill="#6c63ff"
     id="rect56" />
  <rect
     x="530.15359"
     y="293.62072"
     width="140.1765"
     height="12.94905"
     fill="#e6e6e6"
     id="rect58" />
  <rect
     style="fill:#ff044a;fill-opacity:1"
     x="530.15359"
     y="316.41837"
     width="70.23225"
     height="12.94905"
     fill="#6c63ff"
     id="rect60" />
  <circle
     style="fill:#ff044a;fill-opacity:1"
     cx="359.58712"
     cy="266.25839"
     r="6.61746"
     fill="#6c63ff"
     id="circle62" />
  <circle
     cx="384.70535"
     cy="266.25839"
     r="6.61746"
     fill="#e6e6e6"
     id="circle64" />
  <circle
     cx="409.82358"
     cy="266.25839"
     r="6.61746"
     fill="#e6e6e6"
     id="circle66" />
  <circle
     style="fill:#ff044a;fill-opacity:1"
     cx="142.96641"
     cy="266.25839"
     r="6.61746"
     fill="#6c63ff"
     id="circle68" />
  <circle
     style="fill:#ff044a;fill-opacity:1"
     cx="168.08465"
     cy="266.25839"
     r="6.61746"
     fill="#6c63ff"
     id="circle70" />
  <circle
     cx="193.20288"
     cy="266.25839"
     r="6.61746"
     fill="#e6e6e6"
     id="circle72" />
  <circle
     style="fill:#ff044a;fill-opacity:1"
     cx="581.54985"
     cy="266.25839"
     r="6.61746"
     fill="#6c63ff"
     id="circle74" />
  <circle
     style="fill:#ff044a;fill-opacity:1"
     cx="606.66808"
     cy="266.25839"
     r="6.61746"
     fill="#6c63ff"
     id="circle76" />
  <circle
     style="fill:#ff044a;fill-opacity:1"
     cx="631.78631"
     cy="266.25839"
     r="6.61746"
     fill="#6c63ff"
     id="circle78" />
  <path
     style="fill:#ff044a;fill-opacity:1"
     d="M787.95744,269.00126a36.68614,36.68614,0,1,0,36.68614,36.68613A36.794,36.794,0,0,0,787.95744,269.00126Zm0,11.00584a11.00584,11.00584,0,1,1-11.00584,11.00584,11.04276,11.04276,0,0,1,11.00584-11.00584Zm0,52.98324a26.72558,26.72558,0,0,1-22.01168-11.74662c.17638-7.33722,14.67446-11.37623,22.01168-11.37623s21.83531,4.039,22.01168,11.37623a26.77008,26.77008,0,0,1-22.01168,11.74662Z"
     transform="translate(-187.1167 -129.7175)"
     fill="#6c63ff"
     id="path80" />
  <path
     style="fill:#ff044a;fill-opacity:1"
     d="M572.25991,269.61337A36.68614,36.68614,0,1,0,608.946,306.29951,36.794,36.794,0,0,0,572.25991,269.61337Zm0,11.00584a11.00585,11.00585,0,1,1-11.00584,11.00585,11.04277,11.04277,0,0,1,11.00584-11.00585Zm0,52.98325a26.72557,26.72557,0,0,1-22.01168-11.74662c.17637-7.33723,14.67445-11.37623,22.01168-11.37623s21.8353,4.039,22.01168,11.37623a26.77012,26.77012,0,0,1-22.01169,11.74662Z"
     transform="translate(-187.1167 -129.7175)"
     fill="#6c63ff"
     id="path82" />
  <path
     style="fill:#ff044a;fill-opacity:1"
     d="M355.20135,269.42513a36.68614,36.68614,0,1,0,36.68613,36.68614A36.794,36.794,0,0,0,355.20135,269.42513Zm0,11.00584a11.00585,11.00585,0,1,1-11.00584,11.00585A11.04277,11.04277,0,0,1,355.20135,280.431Zm0,52.98325a26.72561,26.72561,0,0,1-22.01169-11.74662c.17638-7.33723,14.67446-11.37623,22.01169-11.37623s21.8353,4.039,22.01168,11.37623a26.77014,26.77014,0,0,1-22.01169,11.74662Z"
     transform="translate(-187.1167 -129.7175)"
     fill="#6c63ff"
     id="path84" />
  <path
     d="M1008.42879,403.47605s5.94477,77.28191-2.3779,79.65981-38.04648,20.2122-85.60458,15.45639c0,0-46.36915,24.968-39.23543,1.189s39.23543-17.83429,39.23543-17.83429,57.06972-11.88952,59.44762-20.21219-7.13371-42.80229-3.56685-43.99124S1008.42879,403.47605,1008.42879,403.47605Z"
     transform="translate(-187.1167 -129.7175)"
     fill="#ffb8b8"
     id="path86" />
  <path
     d="M982.27184,372.56328l19.02324-2.3779s19.02324,36.85753,8.32267,42.80229-38.04648,10.70057-38.04648,8.32267S982.27184,372.56328,982.27184,372.56328Z"
     transform="translate(-187.1167 -129.7175)"
     fill="#575a89"
     id="path88" />
</svg>
